ply
format ascii 1.0
element vertex 19
property float x
property float y
property float z
property uchar red
property uchar green
property uchar blue
end_header
0.030835049226880074 -0.5430313944816589 1.2654536962509155 221 221 221
0.9217873811721802 -0.9821016192436218 2.4039804935455322 191 191 191
1.2861123085021973 -1.4646323919296265 3.6806397438049316 191 191 191
0.4699850380420685 -0.495333731174469 0.9398045539855957 227 227 227
0.6301103234291077 -0.5551571846008301 1.1522938013076782 227 227 227
0.9893107414245605 -0.7389875650405884 1.4668742418289185 222 222 222
-1.477081060409546 -0.7922357320785522 2.2511146068573 79 79 79
-0.9840880036354065 -0.6276241540908813 1.9319944381713867 93 93 93
-1.4486820697784424 -0.6146692633628845 2.2095823287963867 70 70 70
-0.15845738351345062 -0.26908889412879944 2.1070940494537354 115 115 115
-1.3792543411254883 0.12551423907279968 1.4110578298568726 233 233 233
-0.5474071502685547 0.08256606012582779 1.01701021194458 24 24 24
-0.9007540345191956 0.2785766124725342 1.7973899841308594 209 209 209
-2.1620821952819824 0.6295835375785828 2.618434190750122 233 233 233
0.6836271286010742 -0.9377787113189697 1.6877858638763428 227 227 227
9.499670028686523 4.891631603240967 6.274493217468262 63 63 63
4.282154560089111 -0.6151826977729797 2.606229066848755 208 208 208
5.906645774841309 -0.2561826705932617 -2.7076003551483154 38 38 38
163.42526245117188 -123.9674072265625 -57.72863006591797 62 62 62
